<svg xmlns="http://www.w3.org/2000/svg" viewBox="0 0 140 14" aria-label="Atelier Amelot">
<path fill="#000" d="M3.7,8.2h2.7L5.1,3.9L3.7,8.2z M3.9,1.4h2.5l3.8,10.8H7.8L7.1,10h-4l-0.7,2.2H0L3.9,1.4z M19.1,1.4v1.9h-3.2v8.9h-2.3V3.4h-3.2V1.4H19.1z M29.1,3.4h-5.7v2.3h5.2v1.9h-5.2v2.8h6v1.9h-8.2V1.4h7.9L29.1,3.4z M31.9,1.4h2.3v8.9h5.3v1.9h-7.6L31.9,1.4z M43.9,12.2h-2.2V1.4h2.2L43.9,12.2z M54.7,3.4H49v2.3h5.2v1.9H49v2.8h6v1.9h-8.2V1.4h7.9V3.4z M59.7,3.3v2.9h2.6c0.4,0,0.8,0,1.1-0.2c0.5-0.2,0.7-0.7,0.7-1.2c0.1-0.5-0.2-1-0.7-1.3c-0.3-0.1-0.7-0.2-1.1-0.2L59.7,3.3z M62.8,1.4c0.6,0,1.2,0.1,1.7,0.3c0.4,0.2,0.8,0.4,1,0.8c0.2,0.3,0.4,0.6,0.6,0.9c0.1,0.4,0.2,0.7,0.2,1.1c0,0.5-0.1,1-0.4,1.5c-0.3,0.5-0.7,0.9-1.3,1.1c0.4,0.2,0.8,0.5,1.1,0.9c0.2,0.5,0.3,1.1,0.3,1.7v0.7c0,0.3,0,0.7,0.1,1c0,0.3,0.2,0.5,0.4,0.6v0.3h-2.5C64,12,64,11.8,63.9,11.7c-0.1-0.3-0.1-0.6-0.1-0.9l0-1c0.1-0.5-0.1-1-0.4-1.4C63,8.1,62.6,8,62.1,8h-2.3v4.2h-2.2V1.4H62.8z M76.4,8.2h2.7l-1.3-4.2L76.4,8.2z M76.5,1.5h2.5l3.8,10.8h-2.4L79.8,10h-4L75,12.2h-2.4L76.5,1.5z M92.2,1.5h3.2v10.8h-2.1V4.9c0-0.2,0-0.5,0-0.9c0-0.4,0-0.7,0-0.9l-2,9.1h-2.2l-2-9.1c0,0.2,0,0.5,0,0.9c0,0.4,0,0.7,0,0.9v7.3H85V1.4h3.3l2,8.5L92.2,1.5z M106.3,3.4h-5.7v2.3h5.2v1.9h-5.2v2.8h6v1.9h-8.2V1.4h7.9V3.4z M109,1.4h2.3v8.9h5.3v1.9H109L109,1.4z M123.7,10.6c0.8,0,1.6-0.3,2.1-1c0.6-0.8,0.9-1.8,0.8-2.8c0.1-1-0.2-2-0.8-2.8c-0.5-0.7-1.3-1-2.1-1c-0.8,0-1.6,0.3-2.1,1c-0.6,0.8-0.9,1.8-0.8,2.8c-0.1,1,0.2,2,0.8,2.8C122.1,10.3,122.9,10.7,123.7,10.6L123.7,10.6z M128.9,6.8c0.1,1.6-0.5,3.3-1.6,4.5c-1,0.9-2.2,1.3-3.5,1.3c-1.3,0.1-2.6-0.4-3.5-1.3c-1.2-1.2-1.8-2.8-1.6-4.5c-0.1-1.7,0.5-3.3,1.6-4.5c1-0.9,2.2-1.3,3.5-1.3c1.3-0.1,2.6,0.4,3.5,1.3C128.4,3.6,129,5.2,128.9,6.8L128.9,6.8z M139.2,1.4v1.9H136v8.9h-2.3V3.4h-3.2V1.4H139.2z"></path>
</svg>